<svg xmlns="http://www.w3.org/2000/svg" viewBox="0 0 568.79 100"><title>Asset 35</title><g id="Layer_2" data-name="Layer 2"><g id="Layer_1-2" data-name="Layer 1"><path d="M144.68,40.1l-2,6L138,64.1l-1.2,6H128l-1.2-6-4.64-18-2-6h7l.92,6,4.52,17.28L137.2,46.1l.92-6Z"/><path d="M147.68,64.1V45.9l-.4-5.8h6.56l-.4,5.8V64.1l.4,6h-6.56Z"/><path d="M181.52,70.1h-8.28l-2.68-6-1.72-2.8h-4v2.8l.4,6h-6.56l.4-6V45.9l-.4-5.8h10.44c3.54,0,6.18.88,7.9,2.62s2.58,4.4,2.58,7.94a11.42,11.42,0,0,1-1.34,5.64,9.17,9.17,0,0,1-3.7,3.68l2.56,4.12ZM164.8,55.78h2.6c2.27,0,3.86-.37,4.78-1.12s1.38-2.08,1.38-4a6.88,6.88,0,0,0-.56-3.08,3.14,3.14,0,0,0-1.86-1.52,12,12,0,0,0-3.66-.44H164.8Z"/><path d="M202.92,45.78l-.44.12-3.6-.48H195.2V64.1l.4,6H189l.4-6V45.42h-3.68l-3.6.48-.44-.12.88-5.68H202Z"/><path d="M226.8,40.1l-.4,5.8V59q0,6.09-2.54,8.92c-1.69,1.9-4.33,2.84-7.9,2.84s-6.21-.94-7.9-2.84S205.52,63,205.52,59V45.9l-.4-5.8h6.56l-.4,5.8V59c0,2.22.35,3.79,1.06,4.72a5.38,5.38,0,0,0,7.24,0c.71-.93,1.06-2.5,1.06-4.72V45.9l-.4-5.8Z"/><path d="M253.6,70.1h-7l-.92-6V64l-10.24.08-.92,6h-6.2l2-6,4.92-18,1.2-6h8.84l1.2,6,5.2,18Zm-9.52-11.56-3.64-12.8L237,58.58Z"/><path d="M274.92,64.58,274,70.1H256.32l.4-6V45.9l-.4-5.8h6.56l-.4,5.8V64.1l0,.48Z"/><path d="M308.72,70.1h-7l-.92-6V64l-10.24.08-.92,6h-6.2l2-6,4.92-18,1.2-6h8.84l1.2,6,5.2,18ZM299.2,58.54l-3.64-12.8-3.48,12.84Z"/><path d="M315.34,69.56a12.11,12.11,0,0,1-4.26-2.82l-.84-5.64.56-.16a18.73,18.73,0,0,0,4.52,2.94,10.73,10.73,0,0,0,4.4,1,8,8,0,0,0,3.9-.78A2.44,2.44,0,0,0,325,61.9a2.61,2.61,0,0,0-1.3-2.22A19.53,19.53,0,0,0,319,57.82a20,20,0,0,1-5-2,6.63,6.63,0,0,1-2.6-2.8,10.08,10.08,0,0,1-.8-4.36,8.19,8.19,0,0,1,2.74-6.56,10.67,10.67,0,0,1,7.22-2.36,16.48,16.48,0,0,1,5.24.84A11.5,11.5,0,0,1,330,42.78l-.88,5.4-.6.16a6,6,0,0,0-2.9-2.16,11.63,11.63,0,0,0-4.42-.84,6.11,6.11,0,0,0-3.32.76,2.5,2.5,0,0,0-1.16,2.24,2.69,2.69,0,0,0,1.14,2.34A14.2,14.2,0,0,0,322,52.34a24.36,24.36,0,0,1,5.36,2.06,7.1,7.1,0,0,1,2.8,2.74,9,9,0,0,1,.88,4.2,8.36,8.36,0,0,1-2.88,6.78,11.45,11.45,0,0,1-7.64,2.42A13.62,13.62,0,0,1,315.34,69.56Z"/><path d="M338.5,69.56a12.11,12.11,0,0,1-4.26-2.82l-.84-5.64.56-.16a18.73,18.73,0,0,0,4.52,2.94,10.73,10.73,0,0,0,4.4,1,8,8,0,0,0,3.9-.78,2.44,2.44,0,0,0,1.38-2.22,2.61,2.61,0,0,0-1.3-2.22,19.53,19.53,0,0,0-4.66-1.86,20,20,0,0,1-5-2,6.63,6.63,0,0,1-2.6-2.8,10.08,10.08,0,0,1-.8-4.36,8.19,8.19,0,0,1,2.74-6.56,10.67,10.67,0,0,1,7.22-2.36,16.48,16.48,0,0,1,5.24.84,11.5,11.5,0,0,1,4.08,2.24l-.88,5.4-.6.16a6,6,0,0,0-2.9-2.16,11.63,11.63,0,0,0-4.42-.84,6.11,6.11,0,0,0-3.32.76,2.5,2.5,0,0,0-1.16,2.24A2.69,2.69,0,0,0,341,50.68a14.2,14.2,0,0,0,4.14,1.66,24.36,24.36,0,0,1,5.36,2.06,7.1,7.1,0,0,1,2.8,2.74,9,9,0,0,1,.88,4.2,8.36,8.36,0,0,1-2.88,6.78,11.45,11.45,0,0,1-7.64,2.42A13.62,13.62,0,0,1,338.5,69.56Z"/><path d="M358.16,64.1V45.9l-.4-5.8h6.56l-.4,5.8V64.1l.4,6h-6.56Z"/><path d="M373,69.56a12.11,12.11,0,0,1-4.26-2.82l-.84-5.64.56-.16A18.73,18.73,0,0,0,373,63.88a10.73,10.73,0,0,0,4.4,1,8,8,0,0,0,3.9-.78,2.44,2.44,0,0,0,1.38-2.22,2.61,2.61,0,0,0-1.3-2.22,19.53,19.53,0,0,0-4.66-1.86,20,20,0,0,1-5-2,6.63,6.63,0,0,1-2.6-2.8,10.08,10.08,0,0,1-.8-4.36,8.19,8.19,0,0,1,2.74-6.56,10.67,10.67,0,0,1,7.22-2.36,16.48,16.48,0,0,1,5.24.84,11.5,11.5,0,0,1,4.08,2.24l-.88,5.4-.6.16a6,6,0,0,0-2.9-2.16,11.63,11.63,0,0,0-4.42-.84,6.11,6.11,0,0,0-3.32.76,2.5,2.5,0,0,0-1.16,2.24,2.69,2.69,0,0,0,1.14,2.34,14.2,14.2,0,0,0,4.14,1.66A24.36,24.36,0,0,1,385,54.4a7.1,7.1,0,0,1,2.8,2.74,9,9,0,0,1,.88,4.2,8.36,8.36,0,0,1-2.88,6.78,11.45,11.45,0,0,1-7.64,2.42A13.62,13.62,0,0,1,373,69.56Z"/><path d="M411.48,45.78l-.44.12-3.6-.48h-3.68V64.1l.4,6H397.6l.4-6V45.42h-3.68l-3.6.48-.44-.12.88-5.68H410.6Z"/><path d="M436.48,70.1h-7l-.92-6V64l-10.24.08-.92,6h-6.2l2-6,4.92-18,1.2-6h8.84l1.2,6,5.2,18ZM427,58.54l-3.64-12.8-3.48,12.84Z"/><path d="M460.88,64.1l.4,6H452.2l-7.64-23.68V64.1l.4,6H439.2l.4-6V45.9l-.4-5.8h9.12l7.6,23.56V45.9l-.4-5.8h5.76l-.4,5.8Z"/><path d="M485.28,45.78l-.44.12-3.6-.48h-3.68V64.1l.4,6H471.4l.4-6V45.42h-3.68l-3.6.48-.44-.12L465,40.1H484.4Z"/><path d="M514.74,42.84q2.82,2.74,2.82,7.82a11.9,11.9,0,0,1-1.3,5.72A8.83,8.83,0,0,1,512.58,60,11.7,11.7,0,0,1,507,61.3h-4.8v2.8l.4,6h-6.56l.4-6V45.9l-.4-5.8h11A10.56,10.56,0,0,1,514.74,42.84Zm-5.62,12.48A3.14,3.14,0,0,0,511,53.76a7,7,0,0,0,.56-3.1,6.65,6.65,0,0,0-.56-3,3.29,3.29,0,0,0-1.88-1.56,11,11,0,0,0-3.64-.48h-3.24V55.78h3.16A11.69,11.69,0,0,0,509.12,55.32Z"/><path d="M543.71,70.1h-8.27l-2.69-6L531,61.3h-4v2.8l.39,6h-6.56l.4-6V45.9l-.4-5.8h10.45c3.54,0,6.18.88,7.9,2.62s2.57,4.4,2.57,7.94a11.42,11.42,0,0,1-1.33,5.64A9.19,9.19,0,0,1,536.71,60l2.57,4.12ZM527,55.78h2.6c2.26,0,3.86-.37,4.78-1.12s1.37-2.08,1.37-4a6.9,6.9,0,0,0-.55-3.08,3.16,3.16,0,0,0-1.87-1.52,11.93,11.93,0,0,0-3.65-.44H527Z"/><path d="M548.36,66.72q-2.93-4-2.92-11.74t2.89-11.58q2.91-3.93,8.79-3.94t8.77,3.94q2.91,3.95,2.9,11.58t-2.91,11.74q-2.93,4-8.76,4T548.36,66.72Zm12.14-2.56A5.4,5.4,0,0,0,562.25,61a25.87,25.87,0,0,0,.54-6.06,24.53,24.53,0,0,0-.54-5.88A5.34,5.34,0,0,0,560.47,46a5.44,5.44,0,0,0-3.35-.94,5.5,5.5,0,0,0-3.37.94A5.39,5.39,0,0,0,552,49.1a25.7,25.7,0,0,0-.53,5.88A27.11,27.11,0,0,0,552,61a5.63,5.63,0,0,0,8.53,3.12Z"/><path d="M48.11,99.22h0a2.68,2.68,0,0,0,3.78,0h0a24.15,24.15,0,0,0,0-34.08h0a2.66,2.66,0,0,0-3.78,0h0A24.15,24.15,0,0,0,48.11,99.22Z"/><path d="M52.38,1h0a3.36,3.36,0,0,0-4.76,0h0a23.45,23.45,0,0,0,0,33.09l.49.49a2.66,2.66,0,0,0,3.78,0l.49-.49A23.45,23.45,0,0,0,52.38,1Z"/><path d="M99.22,48h0a24,24,0,0,0-34,0h0a2.67,2.67,0,0,0,0,3.77h0a24,24,0,0,0,34,0h0A2.69,2.69,0,0,0,99.22,48Z"/><path d="M.78,48h0a2.69,2.69,0,0,0,0,3.79h0a24,24,0,0,0,34,0h0a2.67,2.67,0,0,0,0-3.77h0A24,24,0,0,0,.78,48Z"/><path d="M83.47,86.1h0a2.68,2.68,0,0,0,2.67-2.68h0a24.07,24.07,0,0,0-24-24.1h0A2.67,2.67,0,0,0,59.44,62h0A24.07,24.07,0,0,0,83.47,86.1Z"/><path d="M16.53,13.61h0a2.68,2.68,0,0,0-2.67,2.68h0a24.07,24.07,0,0,0,24,24.1h0a2.66,2.66,0,0,0,2.67-2.67h0A24.07,24.07,0,0,0,16.53,13.61Z"/><path d="M86.14,16.29h0a2.68,2.68,0,0,0-2.67-2.68h0a24.07,24.07,0,0,0-24,24.1h0a2.66,2.66,0,0,0,2.67,2.67h0A24.07,24.07,0,0,0,86.14,16.29Z"/><path d="M13.86,83.42h0a2.68,2.68,0,0,0,2.67,2.68h0a24.07,24.07,0,0,0,24-24.1h0a2.67,2.67,0,0,0-2.67-2.67h0A24.07,24.07,0,0,0,13.86,83.42Z"/><circle cx="50" cy="49.81" r="14.45"/></g></g></svg>