<svg xmlns="http://www.w3.org/2000/svg" viewBox="0 0 100 100"><defs><style>.cls-1{fill:#f2a906;}.cls-2{fill:#6c3d31;}</style></defs><title>Asset 44</title><g id="Layer_2" data-name="Layer 2"><g id="Layer_1-2" data-name="Layer 1"><path class="cls-1" d="M48.11,99.22h0a2.68,2.68,0,0,0,3.78,0h0a24.15,24.15,0,0,0,0-34.08h0a2.66,2.66,0,0,0-3.78,0h0A24.15,24.15,0,0,0,48.11,99.22Z"/><path class="cls-1" d="M52.38,1h0a3.36,3.36,0,0,0-4.76,0h0a23.45,23.45,0,0,0,0,33.09l.49.49a2.66,2.66,0,0,0,3.78,0l.49-.49A23.45,23.45,0,0,0,52.38,1Z"/><path class="cls-1" d="M99.22,48h0a24,24,0,0,0-34,0h0a2.67,2.67,0,0,0,0,3.77h0a24,24,0,0,0,34,0h0A2.69,2.69,0,0,0,99.22,48Z"/><path class="cls-1" d="M.78,48h0a2.69,2.69,0,0,0,0,3.79h0a24,24,0,0,0,34,0h0a2.67,2.67,0,0,0,0-3.77h0A24,24,0,0,0,.78,48Z"/><path class="cls-1" d="M83.47,86.1h0a2.68,2.68,0,0,0,2.67-2.68h0a24.07,24.07,0,0,0-24-24.1h0A2.67,2.67,0,0,0,59.44,62h0A24.07,24.07,0,0,0,83.47,86.1Z"/><path class="cls-1" d="M16.53,13.61h0a2.68,2.68,0,0,0-2.67,2.68h0a24.07,24.07,0,0,0,24,24.1h0a2.66,2.66,0,0,0,2.67-2.67h0A24.07,24.07,0,0,0,16.53,13.61Z"/><path class="cls-1" d="M86.14,16.29h0a2.68,2.68,0,0,0-2.67-2.68h0a24.07,24.07,0,0,0-24,24.1h0a2.66,2.66,0,0,0,2.67,2.67h0A24.07,24.07,0,0,0,86.14,16.29Z"/><path class="cls-1" d="M13.86,83.42h0a2.68,2.68,0,0,0,2.67,2.68h0a24.07,24.07,0,0,0,24-24.1h0a2.67,2.67,0,0,0-2.67-2.67h0A24.07,24.07,0,0,0,13.86,83.42Z"/><circle class="cls-2" cx="50" cy="49.81" r="14.45"/></g></g></svg>